<svg transform="scale(2)" version="1.1" id="Layer_1" xmlns="http://www.w3.org/2000/svg" xmlns:xlink="http://www.w3.org/1999/xlink" x="0px" y="0px" viewBox="0 0 500 500" xml:space="preserve" class="show_show__wrapper__graphic__5Waiy "><title>React</title><style type="text/css">
	.st0{fill:#A2C609;}
	.st1{opacity:0.91;fill:url(#SVGID_1_);enable-background:new    ;}
	.st2{opacity:0.91;fill:url(#SVGID_00000006689640588409618960000010911230880478444967_);enable-background:new    ;}
	.st3{opacity:0.91;fill:url(#SVGID_00000029759251605832134430000011699884614370327456_);enable-background:new    ;}
	.st4{fill:#C24327;}
	.st5{fill:#68E1FD;}
	.st6{fill:#053855;}
	.st7{fill:#B095FE;}
	.st8{fill:#F4F4F4;}
	.st9{fill:#8B54BA;}
	.st10{fill:#FF9F9F;}
	.st11{opacity:0.44;fill:#053855;enable-background:new    ;}
	.st12{opacity:0.1;fill:#053855;enable-background:new    ;}
	.st13{fill:#16A79E;}
	.st14{fill:#EEAD97;}
</style><g id="background"><path class="st0" d="M241.9,408.2L15.6,274.4c-7.2-4-13.4-10.7-6.4-15l227.1-130.9c3.4-2.1,8.6-3.5,12.1-1.5L486,264.9
		c7.2,4.2,8.5,15.9,1.3,20.1L271.8,408C262.5,413.3,251.2,413.4,241.9,408.2z"></path><linearGradient id="SVGID_1_" gradientUnits="userSpaceOnUse" x1="286.8426" y1="161.0636" x2="200.0126" y2="224.6136" gradientTransform="matrix(1 0 0 -1 0 502)"><stop offset="0" style="stop-color: rgb(162, 198, 9); stop-opacity: 0;"></stop><stop offset="0.99" style="stop-color: rgb(5, 56, 85);"></stop></linearGradient><polyline class="st1" points="195.1,312.8 276.2,365.7 328,332 243.4,294.1 	"></polyline><linearGradient id="SVGID_00000099644802898251959340000003807441441116622230_" gradientUnits="userSpaceOnUse" x1="-2962.3733" y1="101.3839" x2="-2915.5833" y2="140.5238" gradientTransform="matrix(-1 0 0 -1 -2697.4399 502)"><stop offset="0" style="stop-color: rgb(162, 198, 9); stop-opacity: 0;"></stop><stop offset="0.99" style="stop-color: rgb(5, 56, 85); stop-opacity: 0.5;"></stop></linearGradient><path d="
		M230.9,359.6c-0.4,0.1-30.6-9.3-31-9.3l-17.8,13.3l76.5,46.9l31.2-21.2L230.9,359.6z" style="opacity: 0.91; fill: url(&quot;#SVGID_00000099644802898251959340000003807441441116622230_&quot;);"></path><linearGradient id="SVGID_00000054254087278755672860000003273853315108514465_" gradientUnits="userSpaceOnUse" x1="-2839.22" y1="200.44" x2="-2792.6201" y2="239.4201" gradientTransform="matrix(-1 0 0 -1 -2697.4399 502)"><stop offset="0" style="stop-color: rgb(162, 198, 9); stop-opacity: 0;"></stop><stop offset="0.99" style="stop-color: rgb(5, 56, 85); stop-opacity: 0.5;"></stop></linearGradient><polyline points="
		59.8,264.2 135,312 166.2,290.7 84.1,248.5 	" style="opacity: 0.91; fill: url(&quot;#SVGID_00000054254087278755672860000003273853315108514465_&quot;);"></polyline></g><g id="plant"><path class="st4" d="M99,208.8c-0.1-0.5-0.4-1-0.7-1.4c-0.6-0.7-1.3-1.3-2.1-1.8c-10.7-7.2-25.4-9.2-36.7-2.1
		c-2.6,1.6-6.4,5.3-4.9,8.7c0.9,2,3.6,3.2,5.4,4c6.1,2.7,12.8,3.9,19.3,5c2.4,0.4,4.8,0.8,7.2,1c3.4,0.3,6.7-1.1,8.8-3.8
		C97.1,216.2,99.8,211.9,99,208.8z"></path><path class="st5" d="M54.4,210.5c0,0,9.7,8.8,26.5,7.5s18.1-9.2,18.1-9.2s-4.3,55.7-6.7,56.6s-10.9,5.1-15,5.4s-17.2-4.9-17.6-6.4
		S54.4,210.5,54.4,210.5z"></path><path class="st6" d="M57.4,129.4c-0.5-1-2.1-0.1-1.6,0.9c11.5,23.2,13.7,49.3,15.8,74.6c0.1,1.1,1.9,1.2,1.8,0
		C71.4,179.2,69.1,152.8,57.4,129.4z"></path><path class="st6" d="M56,129.6c0,0,3.2,12-0.1,18s-6,7.2-2.1,14.7s14.6,8.5,15.3,14.2S64,139.8,56,129.6z"></path><path class="st6" d="M92.7,151.3c-8.8,18.5-13.8,38.7-14.6,59.2c-0.1,1.4,2.2,1.4,2.2,0c0.8-20.1,5.6-39.9,14.3-58.1
		C95.3,151.1,93.3,150,92.7,151.3z"></path><path class="st6" d="M94.3,157.1c0-1.2-0.3-3.6-0.1-5.7c-0.4,0.3-0.8,0.6-1.3,0.8C88.5,162.9,82,187.8,80,195.4
		c2.7-5.7,13.5-6.5,16.7-14.7c1.4-3.5,1.5-7.3,0.2-10.8C95.5,165.6,94.4,161.7,94.3,157.1z"></path></g><g id="screen"><path class="st7" d="M247.6,200.2V94.7c0-3.7,3-6.7,6.7-6.7c1.2,0,2.4,0.3,3.4,0.9l133.6,78.7c2.1,1.2,3.3,3.4,3.3,5.8v106.9
		c0,3.7-3,6.7-6.7,6.7c-1.2,0-2.4-0.3-3.5-1L250.9,206C248.8,204.8,247.6,202.6,247.6,200.2z"></path><ellipse class="st8" transform="matrix(0.9772 -0.2125 0.2125 0.9772 -31.6639 66.1663)" cx="292" cy="180.4" rx="17.1" ry="27.8"></ellipse><path class="st9" d="M292,182.2l-12.3-25.1c0,0,8.6-11.2,21,2.9L292,182.2z"></path><path class="st10" d="M292,182.2l17.6,5.8c0,0,2-15.6-8.8-28L292,182.2z"></path><polygon class="st9" points="310.6,232.4 320.8,226.1 329.1,236.4 343.7,229.5 357.9,246.3 376.8,242.1 376.8,270.9 	"></polygon><path class="st8" d="M267,111.9l30.4,17.9l4.3,2.5c0.6,0.4,1.4,0.1,1.7-0.5c0.4-0.6,0.1-1.4-0.5-1.7l-30.4-17.9l-4.3-2.5
		c-0.6-0.3-1.4-0.1-1.7,0.6C266.3,110.9,266.5,111.6,267,111.9z"></path><path class="st8" d="M266.3,119.1l30.4,17.9l4.3,2.5c0.6,0.3,1.4,0.1,1.7-0.6c0.3-0.6,0.1-1.2-0.4-1.6l-30.4-17.9l-4.3-2.5
		c-0.6-0.4-1.4-0.1-1.7,0.5C265.5,117.9,265.7,118.7,266.3,119.1z"></path><path class="st8" d="M266.3,126.3l30.4,17.9l4.3,2.5c0.6,0.4,1.4,0.1,1.7-0.5c0.4-0.6,0.1-1.4-0.5-1.7l-30.4-17.9l-4.3-2.5
		c-0.6-0.3-1.4-0.1-1.7,0.6C265.6,125.2,265.7,125.9,266.3,126.3z"></path></g><g id="graphic"><path class="st5" d="M329.6,194.6v-82c0-2.5,2-4.6,4.5-4.6c0.8,0,1.6,0.2,2.3,0.6l104.3,61.4c3.4,2,5.5,5.6,5.5,9.5v82.8
		c0,2.5-2,4.6-4.6,4.6c-0.8,0-1.6-0.2-2.3-0.6l-104.6-62.7C331.6,201.8,329.6,198.3,329.6,194.6z"></path><ellipse class="st8" transform="matrix(0.9673 -0.2538 0.2538 0.9673 -39.1506 112.1948)" cx="415.3" cy="207.9" rx="17.4" ry="24.1"></ellipse><path class="st9" d="M421.3,216.7c0,1.1-0.3,2.2-0.8,3.2c-0.5,0.9-1.3,1.5-2.2,1.7c-1,0.2-2,0.1-2.9-0.2l-0.1,3.5
		c0,1-0.7,1.2-1.2,1c-0.6-0.4-1-1-0.9-1.8l0.1-3.6c-1.5-0.9-2.8-2.1-3.7-3.6c-1.1-1.7-1.7-3.7-1.7-5.8l3.8,1.5
		c0,0.9,0.2,1.7,0.6,2.5c0.3,0.5,0.6,1,1.1,1.4l0.2-6.8c-1-0.8-2-1.7-2.9-2.6c-0.8-0.9-1.4-1.8-1.9-2.9c-0.5-1.3-0.8-2.7-0.7-4.1
		c0-1.2,0.3-2.3,0.9-3.3c0.5-0.8,1.4-1.3,2.3-1.5c0.9-0.1,1.8-0.1,2.7,0.2l0.1-4.4c0-1,0.7-1.2,1.2-0.9c0.6,0.4,1,1,0.9,1.8
		l-0.1,4.5c1.5,0.8,2.7,2,3.5,3.4c1,1.6,1.6,3.5,1.6,5.4l-3.9-1.5c-0.1-0.8-0.3-1.5-0.6-2.2c-0.2-0.4-0.5-0.8-0.8-1.1l-0.2,6.6
		c1,0.8,2,1.7,2.9,2.6c0.8,0.9,1.4,1.9,1.9,2.9C421.1,213.9,421.3,215.3,421.3,216.7z M416.7,217.3c0.5-0.5,0.8-1.3,0.7-2
		c0-0.8-0.2-1.6-0.6-2.3c-0.3-0.5-0.7-1-1.2-1.4l-0.2,6C415.9,217.6,416.3,217.5,416.7,217.3 M412.5,203.5c0.3,0.6,0.7,1.1,1.2,1.5
		l0.2-5.9c-0.4-0.1-0.9,0-1.2,0.2c-0.5,0.5-0.8,1.1-0.7,1.8C411.9,202,412.1,202.8,412.5,203.5"></path><path class="st8" d="M349,136.5v58.1c0,4.9,7.5,4.9,7.5,0v-58.1C356.5,131.6,349,131.6,349,136.5z"></path><path class="st8" d="M360.8,154.7v47c0,4.9,7.5,4.9,7.5,0v-47C368.3,149.9,360.8,149.9,360.8,154.7z"></path><path class="st8" d="M373,168v41.4c0,4.9,7.5,4.9,7.5,0V168C380.5,163.1,373,163.1,373,168z"></path><path class="st0" d="M349,146.4v48.2c0,4.9,7.5,4.9,7.5,0v-43C354,149.9,351.4,148.2,349,146.4z"></path><path class="st10" d="M360.8,162.4v39.4c0,4.9,7.5,4.9,7.5,0v-33.6C365.7,166.3,363.1,164.4,360.8,162.4z"></path><path class="st9" d="M373,181.8v27.6c0,4.9,7.5,4.9,7.5,0v-23.1C378.1,184.7,375.6,183.2,373,181.8z"></path><path class="st6" d="M384.3,211.6l-38.6-22.7c-0.1-0.1-0.2-0.1-0.4-0.2v8.7l38.1,22.4c0.3,0.2,0.6,0.3,0.9,0.4V211.6z"></path></g><g id="gear"><path class="st5" d="M253.7,161.6c-0.1,0.2-0.6,2.2-1.1,1.8s-2.6,0.5-2.6,0.5l-6.1-7.8l0.8-2.6h5.5"></path><path class="st5" d="M224,127.8l-0.6-2l-6.5-3.5v-11c0-0.2,6.2,3.7,6.2,3.7l0.3-0.6c0.3-1.7,1-3.3,1.9-4.8l-4.6-8.4l5.8-4.4
		l4.3,8.7l0,0c1.6-0.4,3.2-0.3,4.8,0.1v-8.3l8.3,4.6v8.7c1.6,1.6,3.1,3.3,4.4,5.1l5-3.2l5.6,10.7l-4.5,3.6l0.4,1.8
		c0.6,1.9,1,3.8,1.4,5.8l6.6,3.6v11l-6.3-3.8c-0.3,2-0.9,3.9-2,5.6l4.7,8l-6,4.5l-4.2-8.3h-5.3v8.3l-7.9-4.8v-8.1
		c-1.8-1.8-3.4-3.8-4.8-5.9l-4.8,3.2l-5.7-10.9l4.8-3.5l-0.5-1.6C224.6,130.4,224.3,129.1,224,127.8z"></path><polyline class="st5" points="209,115.9 216.3,111.4 218.1,114.2 215.3,120.1 	"></polyline><polyline class="st5" points="218.6,152.3 224,150.1 224,146.8 	"></polyline><polygon class="st5" points="235.9,167.9 243.9,163.3 241.9,157.3 234.7,159.4 	"></polygon><polygon class="st5" points="226.6,96.8 218.7,101.4 223,110.1 227.8,110.1 228.9,101.4 	"></polygon><ellipse class="st5" transform="matrix(0.9307 -0.3657 0.3657 0.9307 -33.2395 93.9831)" cx="231.5" cy="134.7" rx="3.6" ry="6.2"></ellipse><polygon class="st5" points="244,101.8 236.1,106.4 227.8,101.8 235.7,97.2 	"></polygon><polygon class="st5" points="245.5,117 253.4,112.4 259,123.1 251.1,127.7 	"></polygon><polygon class="st5" points="259.4,158.8 251.4,163.4 245.4,167.9 253.4,163.3 	"></polygon><path class="st11" d="M253.7,161.6c-0.1,0.2-0.6,2.2-1.1,1.8s-2.6,0.5-2.6,0.5l-6.1-7.8l0.8-2.6h5.5"></path><path class="st5" d="M224,127.8l-0.6-2l-6.5-3.5v-11c0-0.2,6.2,3.7,6.2,3.7l0.3-0.6c0.3-1.7,1-3.3,1.9-4.8l-4.6-8.4l5.8-4.4
		l4.3,8.7l0,0c1.6-0.4,3.2-0.3,4.8,0.1v-8.3l8.3,4.6v8.7c1.6,1.6,3.1,3.3,4.4,5.1l5-3.2l5.6,10.7l-4.5,3.6l0.4,1.8
		c0.6,1.9,1,3.8,1.4,5.8l6.6,3.6v11l-6.3-3.8c-0.3,2-0.9,3.9-2,5.6l4.7,8l-6,4.5l-4.2-8.3h-5.3v8.3l-7.9-4.8v-8.1
		c-1.8-1.8-3.4-3.8-4.8-5.9l-4.8,3.2l-5.7-10.9l4.8-3.5l-0.5-1.6C224.6,130.4,224.3,129.1,224,127.8z"></path><polyline class="st11" points="209,115.9 216.3,111.4 218.1,114.2 215.3,120.1 	"></polyline><polyline class="st5" points="218.6,152.3 224,150.1 224,146.8 	"></polyline><polygon class="st5" points="235.9,167.9 243.9,163.3 241.9,157.3 234.7,159.4 	"></polygon><polygon class="st5" points="226.6,96.8 218.7,101.4 223,110.1 227.8,110.1 228.9,101.4 	"></polygon><ellipse class="st5" transform="matrix(0.9307 -0.3657 0.3657 0.9307 -33.2395 93.9831)" cx="231.5" cy="134.7" rx="3.6" ry="6.2"></ellipse><polygon class="st5" points="245.5,117 253.4,112.4 259,123.1 251.1,127.7 	"></polygon><polygon class="st5" points="259.4,158.8 251.4,163.4 245.4,167.9 253.4,163.3 	"></polygon><path class="st11" d="M224,127.8l-0.6-2l-6.5-3.5v-11c0-0.2,6.2,3.7,6.2,3.7l0.3-0.6c0.3-1.7,1-3.3,1.9-4.8l-4.6-8.4l5.8-4.4
		l4.3,8.7l0,0c1.6-0.4,3.2-0.3,4.8,0.1v-8.3l8.3,4.6v8.7c1.6,1.6,3.1,3.3,4.4,5.1l5-3.2l5.6,10.7l-4.5,3.6l0.4,1.8
		c0.6,1.9,1,3.8,1.4,5.8l6.6,3.6v11l-6.3-3.8c-0.3,2-0.9,3.9-2,5.6l4.7,8l-6,4.5l-4.2-8.3h-5.3v8.3l-7.9-4.8v-8.1
		c-1.8-1.8-3.4-3.8-4.8-5.9l-4.8,3.2l-5.7-10.9l4.8-3.5l-0.5-1.6C224.6,130.4,224.3,129.1,224,127.8z"></path><polyline class="st12" points="218.6,152.3 224,150.1 224,146.8 	"></polyline><polygon class="st12" points="235.9,167.9 243.9,163.3 241.9,157.3 234.7,159.4 	"></polygon><ellipse class="st12" transform="matrix(0.9307 -0.3657 0.3657 0.9307 -33.2395 93.9831)" cx="231.5" cy="134.7" rx="3.6" ry="6.2"></ellipse><polygon class="st12" points="245.5,117 253.4,112.4 259,123.1 251.1,127.7 	"></polygon><polygon class="st12" points="259.4,158.8 251.4,163.4 245.4,167.9 253.4,163.3 	"></polygon><polyline class="st12" points="218.6,152.3 224,150.1 224,146.8 	"></polyline><polygon class="st11" points="235.9,167.9 243.9,163.3 241.9,157.3 234.7,159.4 	"></polygon><path class="st5" d="M216,132.4l-0.6-2l-6.4-3.6v-11c0-0.2,6.2,3.7,6.2,3.7l0.3-0.6c0.3-1.7,1-3.3,1.9-4.8l-4.6-8.4l5.8-4.4
		l4.3,8.6l0,0c1.6-0.4,3.2-0.3,4.8,0.1v-8.3l8.3,4.6v8.7c1.6,1.6,3.1,3.3,4.4,5.1l5-3.2l5.6,10.7l-4.5,3.6l0.4,1.8
		c0.6,1.9,1,3.8,1.4,5.8l6.6,3.7v11l-6.3-3.8c-0.3,2-0.9,3.9-2,5.6l4.7,8l-6,4.5l-4.2-8.3H236v8.3l-7.9-4.8V155
		c-1.8-1.8-3.4-3.8-4.8-5.9l-4.8,3.2l-5.7-11l4.8-3.5l-0.5-1.6C216.7,135,216.3,133.7,216,132.4z"></path><ellipse class="st11" transform="matrix(0.9307 -0.3657 0.3657 0.9307 -33.2395 93.9831)" cx="231.5" cy="134.7" rx="3.6" ry="6.2"></ellipse><polygon class="st11" points="259.4,158.8 251.4,163.4 245.4,167.9 253.4,163.3 	"></polygon><polygon class="st5" points="244,101.8 236.1,106.4 227.8,101.8 235.7,97.2 	"></polygon><polygon class="st11" points="244,101.8 236.1,106.4 227.8,101.8 235.7,97.2 	"></polygon><polygon class="st5" points="263,137.9 255,142.5 255,153.5 263,148.9 	"></polygon><polygon class="st11" points="263,137.9 255,142.5 255,153.5 263,148.9 	"></polygon></g><g id="character"><path class="st4" d="M253.1,248.7l15.7,94.4c0.5,2.7,4.6,2,4.2-0.7L257.2,248C256.8,245.3,252.6,246,253.1,248.7z"></path><path class="st4" d="M229.7,223.6l-34.7,89.2c-1,2.5,3,4.1,4,1.5l34.7-89.2C234.7,222.6,230.7,221.1,229.7,223.6z"></path><path class="st4" d="M237.6,198.4l1.6,95.7c0,2.7,4.3,2.7,4.2-0.1l-1.6-95.7C241.8,195.6,237.5,195.7,237.6,198.4z"></path><ellipse class="st6" cx="240.9" cy="238.1" rx="38.7" ry="17.6"></ellipse><ellipse class="st13" cx="240.9" cy="233.5" rx="38.7" ry="17.6"></ellipse><polyline class="st6" points="206.4,227.6 206.4,228.8 206.9,229.5 	"></polyline><path class="st5" d="M229.3,213.8L207,227.6c-0.6,0.4-0.8,1.3-0.4,1.9c0.1,0.2,0.3,0.4,0.5,0.5l33.8,19.1c1,0.5,2.1,0.5,3.1,0
		l22.1-13c1.6-1.3,1.5-3.8,0-3.9l-33.6-18.3C231.5,213.2,230.3,213.2,229.3,213.8z"></path><path class="st8" d="M229.3,212.8L207,226.6c-0.6,0.4-0.8,1.3-0.4,1.9c0.1,0.2,0.3,0.4,0.5,0.5l33.8,19.1c1,0.5,2.1,0.5,3.1,0
		l22.1-13c0.8-0.5,1.1-1.5,0.7-2.3c-0.2-0.3-0.4-0.5-0.7-0.7l-33.6-19.3C231.5,212.2,230.2,212.2,229.3,212.8z"></path><path class="st6" d="M230.2,211c0,0,9.2-29.8,9.2-29.8s0.3-1.3,1.9-0.6l35.5,20.9c0.9,0.4,1.5,1.3,1.4,2.3c-0.3,1.6-9,29.2-9,29.2
		c-0.4,0.5-1,0.8-1.7,0.6c-1.1-0.3-36.4-20.9-36.4-20.9C230.4,212.4,230,211.7,230.2,211z"></path><polygon class="st5" points="239.9,183.3 276.2,204.5 268.7,229.7 231.9,209.2 	"></polygon><path class="st5" d="M227.9,216l-8.1,5.1c-0.5,0.3-0.6,0.9-0.3,1.4c0.1,0.1,0.2,0.2,0.3,0.3l29.2,16.6c0.9,0.5,2,0.5,2.9,0
		c1.9-1.1,5.1-3.1,7.1-4.3c0.6-0.3,0.8-1.1,0.4-1.6c-0.1-0.2-0.2-0.3-0.4-0.4L229.6,216C229,215.7,228.4,215.7,227.9,216z"></path><path class="st5" d="M228.3,229.7l10.2,5.7c0.5,0.3,0.7,0.9,0.4,1.4c-0.1,0.2-0.2,0.3-0.4,0.4l-6,3.5c-0.4,0.2-0.9,0.2-1.4,0
		l-10.4-5.9c-0.4-0.2-0.6-0.7-0.3-1.2c0.1-0.1,0.2-0.2,0.3-0.3l6.2-3.6C227.4,229.5,227.9,229.5,228.3,229.7z"></path><path class="st12" d="M227.9,216l-8.1,5.1c-0.5,0.3-0.6,0.9-0.3,1.4c0.1,0.1,0.2,0.2,0.3,0.3l29.2,16.6c0.9,0.5,2,0.5,2.9,0
		c1.9-1.1,5.1-3.1,7.1-4.3c0.6-0.3,0.8-1.1,0.4-1.6c-0.1-0.2-0.2-0.3-0.4-0.4L229.6,216C229,215.7,228.4,215.7,227.9,216z"></path><path class="st12" d="M228.3,229.7l10.2,5.7c0.5,0.3,0.7,0.9,0.4,1.4c-0.1,0.2-0.2,0.3-0.4,0.4l-6,3.5c-0.4,0.2-0.9,0.2-1.4,0
		l-10.4-5.9c-0.4-0.2-0.6-0.7-0.3-1.2c0.1-0.1,0.2-0.2,0.3-0.3l6.2-3.6C227.4,229.5,227.9,229.5,228.3,229.7z"></path></g><g id="character-2"><path class="st14" d="M179.8,244.6c0,0,3.9,5.7,4.6,4.6s2.1-10.1,2.1-10.1l-8.7-3.3"></path><path class="st4" d="M215.4,358.1c0.1,0.7,0.6,1.2,1.3,1.2c1.2,0.1,12.5-4.8,15.2,1.8c0.3,0.8,0,1.8-0.8,2.3
		c-5.6,3.6-11.9,5.9-18.6,6.7c-2.3,0.5-4.6,0.2-6.7-0.9l0.5-12.4L215.4,358.1z"></path><path class="st4" d="M188.1,352.4c0,0,10.6-6.9,12.4-2.5c1.4,3.4-11.2,13.2-15.8,14s-5.3-4.1-5.3-4.1l0.1-8"></path><path class="st5" d="M208.8,252.1c0,0,10.6,22.8,10.4,105c0,0-2.2,5.7-17.4,1.8l-6.2-73.5l-2.7,67.8c0,0-7.2,5.3-18.3-1.1
		c0,0,2.5-90.7,8.6-107"></path><path class="st4" d="M182.6,248c-2.6-11.2-8.1-40.1-2.2-44.5c5.1-3.8,16.9,0.3,26,6.4c7.4,5,4.4,34.2,3.1,44.4
		C199.6,255.5,190.4,253.8,182.6,248z"></path><path class="st14" d="M204.8,187.1c0,0,0.3,14.9-3.9,15.2s-6.7-1.4-8.1-4.2"></path><path class="st14" d="M198.8,200.5v7.1c0,0-3.8,1.5-9.1-2.1v-5.8"></path><path class="st4" d="M204.1,189.9c0,0,5.1-5.2,1.8-9.7s-7-2.1-7-2.1s-0.8-2-4.7-2.3s-5.4,3.5-7,4.5s-4.1,3.8-4.3,6.2
		s3.3,15.6,7.4,16.6S199.6,205.4,204.1,189.9z"></path><path class="st4" d="M182.9,202.4c0,0-8.8-0.1-17.3,11.1s13.6,33.9,13.8,32.7s3.5-11.2,3.5-11.2s-9.6-8.3-8-10.7s8-3.6,8-3.6"></path><path class="st14" d="M239.8,225.5c0,0,8.2-1.3,9.3-2.7s0.5-5.4-0.1-6.4s-3.9,0.7-3.9,0.7s0-1-1.4-1s-3.9,2.4-3.9,2.4l-8.6,5
		l0.7,8.1L239.8,225.5z"></path><path class="st4" d="M208,211.7c0,0,9.2,14.6,9.4,15s13.7-6,13.7-6s3.7,1,6.4,8c0,0-11.6,15.8-28.3,12.5
		c-8-1.5-11.9-15.2-11.9-15.2"></path></g></svg>