<svg transform="scale(2)" version="1.1" id="_x30_389_x5F_SEO_1" xmlns="http://www.w3.org/2000/svg" xmlns:xlink="http://www.w3.org/1999/xlink" x="0px" y="0px" viewBox="0 0 500 500" xml:space="preserve" class="show_show__wrapper__graphic__5Waiy "><title>React</title><style type="text/css">
	.st0{fill:#FFFFFF;}
	.st1{fill:#732A09;}
	.st2{fill:#F75454;}
</style><g id="graphic"><rect class="st0" x="99.2" y="76.1" width="232.8" height="170.6"></rect><path class="st1" d="M332,247.2H99.2c-0.3,0-0.5-0.2-0.5-0.5V76.1c0-0.3,0.2-0.5,0.5-0.5H332c0.3,0,0.5,0.2,0.5,0.5v170.6
		C332.5,246.9,332.3,247.2,332,247.2z M99.7,246.2h231.9V76.6H99.7L99.7,246.2z"></path><path class="st2" d="M106,52h219.3c3.7,0,6.7,3,6.7,6.7v17.4l0,0H99.2l0,0V58.7C99.2,55,102.3,52,106,52C106,52,106,52,106,52z"></path><path class="st1" d="M332,76.6H99.2c-0.3,0-0.5-0.2-0.5-0.5V58.7c0-4,3.2-7.2,7.2-7.2c0,0,0,0,0,0h219.3c4,0,7.2,3.2,7.2,7.2v17.4
		C332.5,76.4,332.3,76.6,332,76.6C332,76.6,332,76.6,332,76.6z M99.7,75.6h231.9V58.7c0-3.4-2.8-6.2-6.2-6.2H106
		c-3.4,0-6.2,2.8-6.2,6.2L99.7,75.6z"></path><rect class="st2" x="122.9" y="138.2" width="25.9" height="90.9"></rect><path class="st1" d="M148.8,229.6H123c-0.3,0-0.5-0.2-0.5-0.5v-90.9c0-0.3,0.2-0.5,0.5-0.5h25.9c0.3,0,0.5,0.2,0.5,0.5v90.9
		C149.4,229.4,149.1,229.6,148.8,229.6C148.8,229.6,148.8,229.6,148.8,229.6z M123.4,228.6h24.9v-89.9h-24.9V228.6z"></path><rect class="st2" x="162.8" y="125.9" width="25.9" height="103.2"></rect><path class="st1" d="M188.7,229.6h-25.9c-0.3,0-0.5-0.2-0.5-0.5V125.9c0-0.3,0.2-0.5,0.5-0.5h25.9c0.3,0,0.5,0.2,0.5,0.5v103.2
		C189.2,229.4,189,229.6,188.7,229.6z M163.3,228.6h24.9V126.4h-24.9V228.6z"></path><rect class="st2" x="202.7" y="109.3" width="25.9" height="119.7"></rect><path class="st1" d="M228.6,229.6h-25.9c-0.3,0-0.5-0.2-0.5-0.5V109.3c0-0.3,0.2-0.5,0.5-0.5h25.9c0.3,0,0.5,0.2,0.5,0.5v119.7
		C229.1,229.4,228.8,229.6,228.6,229.6z M203.2,228.6h24.9V109.8h-24.9V228.6z"></path><rect class="st2" x="242.6" y="133" width="25.9" height="96.1"></rect><path class="st1" d="M268.4,229.6h-25.9c-0.3,0-0.5-0.2-0.5-0.5V133c0-0.3,0.2-0.5,0.5-0.5h25.9c0.3,0,0.5,0.2,0.5,0.5v96.1
		C268.9,229.4,268.7,229.6,268.4,229.6C268.4,229.6,268.4,229.6,268.4,229.6z M243.1,228.6h24.9v-95.1h-24.9V228.6z"></path><rect class="st2" x="282.5" y="98.2" width="25.9" height="130.9"></rect><path class="st1" d="M308.3,229.6h-25.9c-0.3,0-0.5-0.2-0.5-0.5V98.2c0-0.3,0.2-0.5,0.5-0.5h25.9c0.3,0,0.5,0.2,0.5,0.5v130.9
		C308.8,229.4,308.6,229.6,308.3,229.6z M283,228.6h24.9V98.7H283L283,228.6z"></path><path class="st1" d="M135.9,147.7c-0.2,0-0.4-0.1-0.5-0.3c-0.1-0.3,0-0.5,0.3-0.6c0,0,0,0,0,0l37.8-14.2l42-17
		c0.1-0.1,0.3-0.1,0.4,0l39.6,24l39.6-34.1c0.2-0.2,0.5-0.2,0.7,0.1c0.2,0.2,0.2,0.5-0.1,0.7l-39.9,34.3c-0.2,0.1-0.4,0.1-0.6,0
		l-39.7-24.1l-41.8,16.9l-37.8,14.2C136,147.6,136,147.7,135.9,147.7z"></path><ellipse class="st0" cx="175.8" cy="133" rx="3.7" ry="3.7"></ellipse><path class="st1" d="M175.8,137.2c-2.3,0-4.2-1.9-4.2-4.2c0-2.3,1.9-4.2,4.2-4.2c2.3,0,4.2,1.9,4.2,4.2
		C180,135.3,178.1,137.2,175.8,137.2C175.8,137.2,175.8,137.2,175.8,137.2z M175.8,129.8c-1.8,0-3.2,1.5-3.2,3.2
		c0,1.8,1.5,3.2,3.2,3.2c1.8,0,3.2-1.5,3.2-3.2C179,131.2,177.5,129.8,175.8,129.8z"></path><ellipse class="st0" cx="135.9" cy="147.2" rx="3.7" ry="3.7"></ellipse><path class="st1" d="M135.9,151.4c-2.3,0-4.2-1.9-4.2-4.2s1.9-4.2,4.2-4.2c2.3,0,4.2,1.9,4.2,4.2
		C140.1,149.5,138.2,151.4,135.9,151.4C135.9,151.4,135.9,151.4,135.9,151.4z M135.9,144c-1.8,0-3.2,1.5-3.2,3.2s1.5,3.2,3.2,3.2
		c1.8,0,3.2-1.4,3.2-3.2C139.1,145.4,137.7,144,135.9,144L135.9,144z"></path><ellipse class="st0" cx="295.4" cy="105.9" rx="3.7" ry="3.7"></ellipse><path class="st1" d="M295.4,110.1c-2.3,0-4.2-1.9-4.2-4.2c0-2.3,1.9-4.2,4.2-4.2c2.3,0,4.2,1.9,4.2,4.2
		C299.6,108.2,297.7,110.1,295.4,110.1L295.4,110.1z M295.4,102.7c-1.8,0-3.2,1.5-3.2,3.2s1.5,3.2,3.2,3.2c1.8,0,3.2-1.4,3.2-3.2
		C298.6,104.1,297.2,102.7,295.4,102.7z"></path><ellipse class="st0" cx="215.6" cy="116.8" rx="3.7" ry="3.7"></ellipse><path class="st1" d="M215.6,121.1c-2.3,0-4.2-1.9-4.2-4.2c0-2.3,1.9-4.2,4.2-4.2c2.3,0,4.2,1.9,4.2,4.2
		C219.9,119.2,218,121.1,215.6,121.1z M215.6,113.6c-1.8,0-3.2,1.5-3.2,3.2s1.5,3.2,3.2,3.2c1.8,0,3.2-1.4,3.2-3.2
		C218.9,115.1,217.4,113.6,215.6,113.6z"></path><ellipse class="st0" cx="255.5" cy="140.2" rx="3.7" ry="3.7"></ellipse><path class="st1" d="M255.5,144.4c-2.3,0-4.2-1.9-4.2-4.2s1.9-4.2,4.2-4.2c2.3,0,4.2,1.9,4.2,4.2
		C259.7,142.6,257.8,144.5,255.5,144.4z M255.5,137c-1.8,0-3.2,1.5-3.2,3.2s1.5,3.2,3.2,3.2c1.8,0,3.2-1.4,3.2-3.2
		C258.8,138.4,257.3,137,255.5,137C255.5,137,255.5,137,255.5,137L255.5,137z"></path></g><g id="character-2"><path class="st0" d="M336.4,383.1l2.8,2.4c9.9,8.4,17.1,19.5,20.6,32L371,457l59.1-7l-16.2-54l-13.1-44.2l-113,11.1
		c1.5,35.9,0,95.8,0,95.8h59.5v-65.1"></path><path class="st1" d="M347.2,459.3h-59.5c-0.1,0-0.3-0.1-0.4-0.1c-0.1-0.1-0.1-0.2-0.1-0.4c0-0.6,1.5-60.3,0-95.7
		c0-0.3,0.2-0.5,0.5-0.5l113-11.1c0.2,0,0.5,0.1,0.5,0.4l13.1,44.2l16.2,54c0,0.1,0,0.3-0.1,0.4c-0.1,0.1-0.2,0.2-0.4,0.2l-59.1,7
		c-0.2,0-0.5-0.1-0.5-0.4l-11.2-39.6c-2.3-8.2-6.2-15.9-11.5-22.5v63.8C347.8,459.1,347.5,459.3,347.2,459.3z M288.2,458.3h58.5
		v-64.5c-2.4-2.9-5-5.5-7.9-8l-2.8-2.4c-0.2-0.2-0.3-0.5-0.1-0.7c0.2-0.2,0.5-0.3,0.7-0.1c0,0,0.1,0,0.1,0.1l2.8,2.4
		c10,8.4,17.2,19.6,20.8,32.2l11.1,39.2l58.1-6.9l-16-53.4l-13-43.8l-112.1,11C289.6,397.3,288.4,452.4,288.2,458.3L288.2,458.3z"></path><path class="st2" d="M413.1,252c-15.3-11.8-39.7-17.3-61.5-18.8c-19.9-1.5-39.6,3.7-56.1,14.9c-3.7,2.5-7.2,5.4-10.5,8.6
		c-16.5,16.6-31,54.9-31,54.9s0,22.1,32.5,11.7l-1.5,41.6c0,0,24.3,8.7,57,8.3s53.3-9.7,53.3-9.7l13.4,11.4c0,0,9.7,7.6,13.7,4.2
		s34.7-45.6,35.7-63.6S436.8,270.3,413.1,252z M408.7,330v-27.6l10.3,7L408.7,330z"></path><path class="st0" d="M398.7,359.8c-8.1,10-9.8,9.2-15.4,11.9s-7.7,3.2-7.1,6s8,1.5,8,1.5s-6.5,6.7-8.4,13s-3.3,26.4-3.3,26.4
		s2.5,2.2,4.2-1.8s5.2-15.5,5.2-15.5s2.2,16.6,3,19s5.7,1.5,5.1-3.6s0.8-17,0.8-17s3.5,12.4,4.8,15.9s6.2,3.5,5.3-1.5
		s-1.8-12.7-1.8-12.7l9.9,12.5c0,0,4.3-0.4,1.3-6.3s-4.6-9.7-4.6-9.7c4.3-3.4,7.1-8.3,7.6-13.8c0.5-4.7,1.6-7.1,2.6-8.4
		c0.9-1.1,1-2.8,0.2-4c-2-3.2-4.7-6-7.8-8.2C402.5,359.6,398.7,359.8,398.7,359.8z"></path><path class="st1" d="M386.8,422.1c-1.1,0-2-0.6-2.4-1.6c-0.6-1.9-2-12.2-2.7-16.8c-1.1,3.5-3.3,10.4-4.6,13.4
		c-0.4,1.2-1.3,2.2-2.5,2.6c-0.9,0.2-1.8-0.1-2.5-0.6c-0.1-0.1-0.2-0.3-0.2-0.4c0.1-0.8,1.4-20.3,3.3-26.5c1.5-4.9,5.7-10,7.6-12.1
		c-2.4,0.3-6.7,0.4-7.2-2.1c-0.6-2.8,1.2-3.7,5.1-5.5c0.7-0.3,1.5-0.7,2.3-1.1c1.1-0.5,2.1-0.9,2.9-1.3c3.6-1.5,5.9-2.5,12.4-10.5
		c0.1-0.1,0.2-0.2,0.4-0.2c0.2,0,4-0.1,10,3.9c3.1,2.3,5.8,5.1,7.9,8.4c0.9,1.4,0.8,3.2-0.3,4.5c-0.9,1.1-2,3.4-2.5,8.1
		c-0.5,5.5-3.2,10.5-7.5,13.9c0.5,1.1,2,4.5,4.4,9.3c1.2,2.4,1.4,4.2,0.7,5.5c-0.5,0.9-1.4,1.4-2.4,1.5c-0.2,0-0.3-0.1-0.4-0.2
		l-8.8-11.1c0.3,2.5,0.9,7.4,1.5,10.8c0.5,2.7-0.6,4.1-1.9,4.4c-1.9,0.4-3.8-0.8-4.4-2.7c-1-2.5-3-9.6-4.1-13.5
		c-0.4,3.8-0.9,10.8-0.5,14.3c0.4,3.1-1.2,5-2.9,5.4C387.2,422.1,387,422.1,386.8,422.1z M381.9,400.9L381.9,400.9
		c0.2,0,0.4,0.2,0.5,0.4c0,0.2,2.2,16.6,2.9,18.9c0.3,0.7,1.2,1.1,1.9,0.8c1.2-0.3,2.5-1.5,2.1-4.2c-0.6-5.2,0.7-16.7,0.8-17.2
		c0-0.2,0.2-0.4,0.5-0.4c0.2,0,0.5,0.1,0.5,0.4c0,0.1,3.5,12.5,4.8,15.9c0.4,1.4,1.8,2.2,3.2,2.1c1-0.3,1.5-1.5,1.2-3.3
		c-0.9-5-1.7-12.5-1.8-12.6c0-0.2,0.1-0.4,0.3-0.5c0.2-0.1,0.4,0,0.6,0.1l9.7,12.2c0.6-0.1,1.1-0.5,1.4-1c0.5-1,0.3-2.5-0.7-4.5
		c-2.9-5.9-4.6-9.7-4.6-9.8c-0.1-0.2,0-0.5,0.2-0.6c4.2-3.3,6.9-8.1,7.4-13.5c0.5-4,1.4-6.9,2.7-8.6c0.8-1,0.9-2.3,0.2-3.4
		c-2-3.2-4.6-5.9-7.6-8.1c-4.9-3.3-8.3-3.7-9.2-3.7c-6.5,8-8.9,9-12.6,10.6c-0.9,0.4-1.8,0.8-2.9,1.3l-2.3,1.1c-4,1.9-5,2.4-4.6,4.4
		s5.7,1.5,7.5,1.1c0.2,0,0.4,0.1,0.5,0.3c0.1,0.2,0.1,0.4-0.1,0.6c-0.1,0.1-6.5,6.7-8.3,12.7c-1.7,5.7-3.1,23.6-3.2,26.1
		c0.4,0.3,0.9,0.4,1.4,0.3c0.7-0.2,1.3-0.9,1.8-2c1.6-3.9,5.2-15.3,5.2-15.4C381.4,401,381.7,400.9,381.9,400.9z"></path><path class="st1" d="M381.9,401.9c-0.3,0-0.5-0.2-0.5-0.5l-0.7-5.8c0-0.3,0.2-0.5,0.4-0.6c0.3,0,0.5,0.2,0.6,0.4l0.7,5.8
		C382.4,401.6,382.2,401.9,381.9,401.9L381.9,401.9z"></path><path class="st1" d="M390.7,400.2c-0.2,0-0.4-0.2-0.5-0.4l-1-3.6c-0.1-0.3,0.1-0.6,0.4-0.6s0.6,0.1,0.6,0.4l1,3.6
		c0.1,0.3-0.1,0.5-0.4,0.6L390.7,400.2z"></path><path class="st1" d="M399,402c-0.2,0-0.3-0.1-0.4-0.2l-2.4-3.5c-0.2-0.2-0.1-0.5,0.1-0.7c0.2-0.2,0.5-0.1,0.7,0.1l2.4,3.5
		c0.2,0.2,0.1,0.5-0.1,0.7C399.2,402,399.1,402,399,402z"></path><path class="st1" d="M384.2,379.8c-0.1,0-0.2,0-0.3-0.1c-0.2-0.2-0.2-0.5-0.1-0.7c2.3-2.7,4.5-5.5,6.6-8.4c0.2-0.2,0.5-0.3,0.7-0.1
		c0.2,0.1,0.3,0.4,0.2,0.6c0,0.1-1,1.8-6.7,8.5C384.5,379.7,384.4,379.8,384.2,379.8z"></path><path class="st1" d="M408.7,302.9c-0.1,0-0.2,0-0.2-0.1c-23-12.4-24.8-32.7-24.7-38.6c0-0.3,0.2-0.5,0.5-0.5l0,0
		c0.3,0,0.5,0.2,0.5,0.5c0,0,0,0,0,0c0,5.8,1.7,25.6,24.2,37.8c0.2,0.1,0.3,0.4,0.2,0.7c0,0,0,0,0,0
		C409,302.7,408.9,302.8,408.7,302.9z"></path><path class="st1" d="M393.2,359c-0.2,0-0.4-0.1-0.5-0.3c-1.5-3.4,2.2-8.8,7-15.5c3.2-4.3,6-8.8,8.6-13.5c0.1-0.2,0.4-0.3,0.7-0.2
		c0.2,0.1,0.3,0.4,0.2,0.7l0,0c-2.6,4.7-5.5,9.3-8.6,13.6c-4.4,6.2-8.1,11.6-6.9,14.5c0.1,0.3,0,0.5-0.3,0.7c0,0,0,0,0,0
		C393.3,359,393.3,359,393.2,359z"></path><path class="st0" d="M354.2,211.6c1,9.6,1.5,19.2,1.3,28.8c-0.1,2.3-1.7,4.3-4,4.8c-3.7,0.8-9.6,1.3-14.9-1.5
		c-1.8-0.9-2.8-2.8-2.7-4.8l0.7-11.2L354.2,211.6z"></path><path class="st1" d="M345.9,246.2c-3.3,0.1-6.6-0.7-9.5-2.2c-2-1-3.1-3.1-3-5.3l0.7-11.2c0-0.1,0.1-0.3,0.2-0.4l19.6-16
		c0.1-0.1,0.3-0.1,0.5-0.1c0.2,0.1,0.3,0.2,0.3,0.4c1,9.6,1.5,19.2,1.3,28.8c-0.1,2.5-1.9,4.7-4.4,5.2
		C349.7,246,347.8,246.2,345.9,246.2z M335.1,227.9l-0.7,11c-0.1,1.8,0.8,3.5,2.5,4.3c5.1,2.7,10.8,2.3,14.6,1.5
		c2-0.4,3.5-2.2,3.6-4.3c0.2-9.3-0.2-18.6-1.2-27.8L335.1,227.9z"></path><path class="st0" d="M316.6,182.6c-2.1-7.2-3.2-13.3-2.8-15.2s15.7-21.4,31.6-21.4s28,4.1,33.8,11c0,0,16.6,4.7,14.1,29.1
		s-10.4,36.4-15.2,38.1s-26.7,0-26.7,0L316.6,182.6z"></path><path class="st1" d="M369,225.4c-7.7,0-17.1-0.7-17.7-0.8c-0.1,0-0.3-0.1-0.3-0.2l-34.8-41.5c0-0.1-0.1-0.1-0.1-0.2
		c-1.7-5.9-3.4-13.1-2.8-15.4c0.4-1.8,15.8-21.9,32.1-21.9c15.9,0,28,3.9,34.1,11.1c1.7,0.6,16.7,6.3,14.3,29.5
		c-2.6,25.2-10.7,36.9-15.5,38.6C376.7,225.2,373.1,225.4,369,225.4z M351.6,223.7c2.2,0.2,22,1.6,26.3,0s12.3-13.2,14.9-37.7
		c1-9.8-1-17.8-6-23.2c-2.1-2.4-4.8-4.2-7.8-5.3c-0.1,0-0.2-0.1-0.2-0.2c-5.7-6.9-17.9-10.8-33.4-10.8c-15.8,0-30.7,19.3-31.1,21.1
		s0.7,7.7,2.8,14.8L351.6,223.7z"></path><path class="st0" d="M323.5,169.4c0,0-21,32-11.6,49.4c8.2,15.1,34.6,20.4,54.3-1c0,0,4.8,3.8,10.1,2.3s8.2-16.5,0-16.8l-7.3,8.7
		l-4.1-3c0,0,5-12.1,5-18.3c0,0-6.8-12.5-20.6-17.9l7.8-10.6l-15.3,8.6l-7.9-1.4l5.7-10.1l-11.5,10.3L323.5,169.4z"></path><path class="st1" d="M336.5,232.6c-1.4,0-2.8-0.1-4.2-0.3c-9.2-1.1-17-6.1-20.9-13.2c-4-7.4-3.2-18,2.3-31.6
		c2.6-6.4,5.7-12.5,9.4-18.3c0.1-0.2,0.3-0.2,0.4-0.2l4.5,0.1l11.3-10.2c0.2-0.2,0.5-0.2,0.6,0c0.2,0.2,0.2,0.4,0.1,0.6l-5.3,9.5
		l7.1,1.2l15.1-8.5c0.2-0.1,0.5-0.1,0.6,0.1c0.1,0.2,0.1,0.4,0,0.6l-7.5,10.1c13.4,5.6,20.1,17.8,20.2,17.9c0,0.1,0.1,0.2,0.1,0.2
		c0,5.6-4,16-4.9,18.1l3.4,2.6l7-8.4c0.1-0.1,0.2-0.2,0.4-0.2c3.1,0.1,5.1,2.2,5.5,5.8c0.6,4.6-1.7,11-5.4,12
		c-4.7,1.3-9-1.2-10.2-2.1C357.8,227.6,347.2,232.6,336.5,232.6z M323.8,170c-3.6,5.7-6.6,11.7-9.1,17.9c-3.7,9.2-7.1,22-2.3,30.8
		c3.7,6.9,11.2,11.6,20.1,12.7c11.8,1.5,23.9-3.6,33.4-13.8c0.2-0.2,0.5-0.2,0.7-0.1c0,0,4.7,3.6,9.7,2.2c2.8-0.8,5.2-6.4,4.7-10.9
		c-0.2-1.7-1-4.6-4.3-4.9l-7.1,8.5c-0.2,0.2-0.5,0.2-0.7,0.1l-4.1-3.1c-0.2-0.1-0.2-0.4-0.2-0.6c0-0.1,4.9-12,5-17.9
		c-0.7-1.2-7.5-12.5-20.2-17.6c-0.1-0.1-0.3-0.2-0.3-0.3c0-0.1,0-0.3,0.1-0.4l6.4-8.7l-13.2,7.5c-0.1,0.1-0.2,0.1-0.3,0.1l-8-1.4
		c-0.3-0.1-0.5-0.3-0.4-0.6c0-0.1,0-0.1,0.1-0.1l4.2-7.5l-9.3,8.3c-0.1,0.1-0.2,0.1-0.4,0.1L323.8,170z"></path><path class="st1" d="M343.8,188.7c1.1-0.5,2.2-0.8,3.3-0.9c1.2-0.2,2.4-0.2,3.5,0c1.2,0.2,2.4,0.8,3.3,1.7c0.8,0.9,1.3,2.1,1.4,3.4
		c0,0.3-0.2,0.5-0.4,0.6c0,0,0,0,0,0c-0.2,0-0.4-0.1-0.5-0.3V193c-0.3-0.9-0.9-1.7-1.6-2.4c-0.7-0.6-1.6-1-2.5-1.1
		c-1-0.2-2-0.3-3-0.2c-1.1,0.1-2.1,0.2-3.1,0.3l0,0c-0.3,0.1-0.6-0.1-0.6-0.4C343.5,189,343.7,188.7,343.8,188.7L343.8,188.7z"></path><path class="st1" d="M320.6,177.1c1-0.4,2-0.6,3.1-0.6c2.2,0,4.3,1,5.6,2.8c0.3,0.4,0.6,0.9,0.9,1.3c0.2,0.5,0.4,0.9,0.6,1.4
		c0.1,0.3-0.1,0.5-0.3,0.6c-0.2,0.1-0.4,0-0.5-0.1l0-0.1c-0.3-0.4-0.5-0.8-0.8-1.1c-0.3-0.4-0.6-0.7-0.9-1c-0.6-0.6-1.3-1.1-2.1-1.5
		c-0.8-0.4-1.6-0.6-2.5-0.7c-0.9-0.1-1.8-0.1-2.7,0h-0.1c-0.3,0.1-0.6-0.1-0.6-0.4S320.4,177.1,320.6,177.1L320.6,177.1z"></path><path class="st1" d="M324.1,200.3c-0.4,0-0.8,0-1.2-0.1c-1.9-0.4-3.2-2.3-2.8-4.2c0,0,0-0.1,0-0.1c0.1-1,0.7-1.9,1.5-2.4
		c1.6-1,4.1-0.5,5.1-0.3c1.3-3.6,2.4-7.3,3.1-11c0.1-0.3,0.3-0.4,0.6-0.4c0.3,0.1,0.4,0.3,0.4,0.6c-0.8,4-1.9,7.9-3.3,11.7
		c-0.1,0.2-0.4,0.4-0.6,0.3c0,0-3-1-4.7,0c-0.6,0.4-1,1-1.1,1.7c-0.4,1.4,0.4,2.8,1.8,3.2c0.1,0,0.1,0,0.2,0
		c1.9,0.5,3.9-0.5,4.7-2.3c0.1-0.3,0.4-0.4,0.6-0.3c0.3,0.1,0.4,0.4,0.3,0.6C328,199.1,326.1,200.4,324.1,200.3z"></path><path class="st1" d="M348.4,196.9c-0.9,1.8-2.6,2.8-3.8,2.2s-1.5-2.5-0.7-4.3c0.3-0.5,0.6-1,1-1.4l1.6,2.2l0.3-3.1
		c0.3,0,0.7,0,1,0.2C348.9,193.2,349.2,195.1,348.4,196.9z"></path><path class="st1" d="M323,187.1c-0.9,1.8-2.6,2.8-3.8,2.2s-1.5-2.5-0.7-4.3c0.2-0.5,0.6-1,1-1.4l1.6,2.2l0.3-3.1c0.3,0,0.7,0,1,0.2
		C323.6,183.4,323.9,185.3,323,187.1z"></path><path class="st1" d="M329.7,212.6c-0.1,0-0.3,0-0.5,0c-2.1-0.2-4-1.8-5.4-4.4c-0.1-0.2-0.1-0.5,0.2-0.7s0.5-0.1,0.7,0.2
		c0,0,0,0,0,0.1c1.2,2.3,2.9,3.7,4.6,3.9c1.7,0,3.3-0.8,4.3-2.2c0.2-0.2,0.5-0.2,0.7,0c0.2,0.2,0.2,0.4,0.1,0.6
		C333.4,211.6,331.6,212.5,329.7,212.6z"></path><path class="st1" d="M376.7,216.2c-0.1,0-0.2,0-0.3-0.1c-0.2-0.1-0.3-0.5-0.2-0.7c0,0,0,0,0,0c1.2-1.9,2.5-5.7-0.2-7.6
		c-0.2-0.2-0.3-0.5-0.1-0.7c0,0,0,0,0,0c0.2-0.2,0.5-0.3,0.7-0.1c3.2,2.3,1.8,6.7,0.4,8.9C377,216.1,376.9,216.2,376.7,216.2z"></path><path class="st0" d="M323.5,169.4c-1.5-0.1-3,0.1-4.5,0.6"></path><path class="st1" d="M319,170.5c-0.3,0.1-0.5-0.1-0.6-0.4c-0.1-0.3,0.1-0.5,0.4-0.6c1.5-0.5,3.1-0.7,4.7-0.6c0.3,0,0.5,0.2,0.5,0.5
		c0,0.3-0.2,0.5-0.5,0.5c0,0,0,0,0,0c-1.5-0.1-2.9,0.1-4.3,0.5C319.2,170.5,319.1,170.5,319,170.5z"></path><path class="st0" d="M370,190.7c2,2.6,3.6,5.5,4.8,8.5"></path><path class="st1" d="M374.8,199.7c-0.2,0-0.4-0.1-0.5-0.3c-1.2-3-2.8-5.8-4.8-8.4c-0.2-0.2-0.1-0.5,0.1-0.7
		c0.2-0.2,0.5-0.1,0.7,0.1c2,2.7,3.6,5.6,4.9,8.7c0.1,0.3,0,0.5-0.3,0.6L374.8,199.7z"></path><path class="st0" d="M286.3,224.3c0.9-6-1.9-14.3,0.4-17.1s5.4-0.2,6.3,4.1s-3.7,11.9-3.8,12C288.3,223.7,287.3,224,286.3,224.3z"></path><path class="st1" d="M286.3,224.8c-0.1,0-0.2,0-0.3-0.1c-0.1-0.1-0.2-0.3-0.2-0.4c0.3-2.8,0.2-5.5-0.2-8.3c-0.4-3.9-0.7-7.3,0.7-9
		c0.7-1,2-1.5,3.2-1.3c1.8,0.4,3.4,2.7,4,5.5c0.8,4.1-3,11-3.8,12.4c-0.1,0.2-0.2,0.4-3.2,1.2C286.4,224.8,286.4,224.8,286.3,224.8z
		 M288.8,206.5c-0.7,0-1.3,0.4-1.7,1c-1.2,1.4-0.8,4.8-0.5,8.3c0.3,2.6,0.4,5.2,0.3,7.8c0.8-0.3,1.6-0.5,1.9-0.6
		c0.7-1.2,4.4-7.9,3.7-11.6c-0.5-2.5-1.8-4.4-3.2-4.8C289.1,206.6,289,206.5,288.8,206.5z"></path><path class="st0" d="M281.2,234.8c5-9.5,11.1-24.5,15.4-28.3s15.2-6.3,19.2-5.5s0.7,5.6-4.4,6.7c-3.4,0.8-6.5,2.4-9.2,4.6
		c0,0,3.8,0.8,4.1,3.1c0,0,5.9,1.2,5.7,5.1c0,0,5.2,3.4,4.7,8.1s-5.4,9.6-9.7,8.5c-1.4,3.5-4.4,6.3-8,7.5
		C299,244.5,295,232.8,281.2,234.8z"></path><path class="st1" d="M299.1,245.1c-0.2,0-0.4-0.1-0.5-0.3c-0.2-0.5-4-11.3-17.4-9.4c-0.2,0-0.4-0.1-0.5-0.2c-0.1-0.2-0.1-0.4,0-0.5
		c1.6-2.9,3.3-6.5,4.9-9.9c3.7-7.8,7.6-15.8,10.6-18.5c4.6-4,15.6-6.4,19.7-5.6c2,0.4,2.2,1.7,2.2,2.2c0,2.2-3.1,4.8-6.6,5.5
		c-3,0.7-5.8,2.1-8.3,3.9c1.2,0.4,3,1.3,3.5,2.9c1.3,0.3,5.7,1.7,5.7,5.3c1.1,0.8,5.2,4,4.7,8.4c-0.4,3.1-2.2,5.9-4.7,7.6
		c-1.5,1.1-3.3,1.6-5.2,1.4c-1.5,3.5-4.5,6.2-8.1,7.4L299.1,245.1z M284.2,234.1c6.6-0.1,12.6,3.8,15.2,9.9c3.3-1.2,5.9-3.8,7.2-7
		c0.1-0.2,0.4-0.4,0.6-0.3c1.7,0.3,3.4-0.1,4.8-1.2c2.3-1.6,3.9-4.1,4.3-6.9c0.5-4.3-4.5-7.6-4.5-7.6c-0.2-0.1-0.2-0.3-0.2-0.4
		c0.2-3.4-5.2-4.6-5.2-4.6c-0.2,0-0.4-0.2-0.4-0.4c-0.2-1.6-2.8-2.5-3.7-2.7c-0.2,0-0.3-0.2-0.4-0.4c0-0.2,0-0.4,0.2-0.5
		c2.8-2.3,6-3.9,9.5-4.7c3.2-0.6,5.8-3,5.8-4.5c0-0.6-0.5-1-1.4-1.2c-3.8-0.8-14.5,1.6-18.8,5.4c-2.9,2.5-6.7,10.5-10.4,18.2
		c-1.5,3.1-3,6.4-4.5,9.1C282.8,234.1,283.5,234.1,284.2,234.1L284.2,234.1z"></path><path class="st1" d="M295.2,218.3c-0.1,0-0.2,0-0.3-0.1c-0.2-0.2-0.2-0.5,0-0.7c4.4-5,5.8-6.1,7.5-5.6c0.3,0.1,0.4,0.4,0.3,0.6
		c-0.1,0.3-0.4,0.4-0.6,0.3c0,0,0,0,0,0c-1-0.3-2.2,0.4-6.5,5.3C295.5,218.2,295.4,218.3,295.2,218.3z"></path><path class="st1" d="M299.2,222.2c-0.1,0-0.2,0-0.3-0.1c-0.2-0.2-0.3-0.5-0.1-0.7c3.2-4.9,5.3-6.7,7.5-6.5c0.3,0,0.5,0.2,0.5,0.5
		c0,0,0,0,0,0c0,0.3-0.2,0.5-0.5,0.5c0,0,0,0,0,0c-1.8-0.1-3.7,1.6-6.6,6.1C299.6,222.1,299.4,222.2,299.2,222.2z"></path><path class="st1" d="M304.3,226c-0.1,0-0.2,0-0.2-0.1c-0.2-0.1-0.3-0.4-0.2-0.7c2.2-3.9,6.2-5.9,8.3-5.3c0.3,0.1,0.4,0.4,0.3,0.6
		c-0.1,0.3-0.3,0.4-0.6,0.3c0,0,0,0,0,0c-1.3-0.4-4.9,0.9-7.1,4.8C304.6,225.9,304.5,226,304.3,226z"></path><path class="st1" d="M307,237.6h-0.2c-0.3-0.1-0.4-0.4-0.3-0.6v-0.1c1.9-5.3,3.2-8.8,6.1-10c0.3-0.1,0.5,0,0.6,0.3
		c0.1,0.2,0,0.5-0.3,0.6c-2.5,1.1-3.7,4.2-5.6,9.4v0.1C307.4,237.5,307.2,237.6,307,237.6z"></path><path class="st2" d="M301.9,240.5c4.6,13.5-13.8,81-24.1,84.4s-28.5,2-28.9-19.2s19.5-70.5,32.9-76.1S301.9,240.5,301.9,240.5z"></path><path class="st1" d="M279.2,318.4c-0.1,0-0.2,0-0.3-0.1c-0.2-0.2-0.3-0.5-0.1-0.7c0,0,0,0,0,0c9.5-13.6,24.4-62.1,23.5-73
		c0-0.3,0.2-0.5,0.5-0.5c0.3,0,0.5,0.2,0.5,0.5c0.4,5.3-2.7,19.4-7.9,35.9c-4.2,13.4-10.6,30.3-15.8,37.7
		C279.5,318.3,279.4,318.4,279.2,318.4z"></path><path class="st1" d="M286.6,323.8L286.6,323.8c-0.3,0-0.5-0.3-0.5-0.5c0,0,0,0,0,0c1.6-14.9,6.3-36.9,6.4-37.1
		c0.1-0.3,0.3-0.5,0.6-0.4c0.3,0.1,0.5,0.3,0.4,0.6c0,0.2-4.8,22.1-6.4,37C287.1,323.7,286.9,323.8,286.6,323.8z"></path></g><g id="search-bar"><path class="st0" d="M83.6,225.5h146c10.7,0,19.3,8.6,19.3,19.3l0,0c0,10.7-8.6,19.3-19.3,19.3h-146c-10.7,0-19.3-8.6-19.3-19.3
		l0,0C64.3,234.2,72.9,225.5,83.6,225.5z"></path><path class="st1" d="M229.6,264.6h-146c-10.9,0-19.8-8.9-19.8-19.8c0-10.9,8.9-19.8,19.8-19.8h146c10.9,0,19.8,8.9,19.8,19.8
		C249.4,255.8,240.6,264.6,229.6,264.6C229.6,264.6,229.6,264.6,229.6,264.6z M83.6,226c-10.4,0-18.8,8.4-18.8,18.8
		c0,10.4,8.4,18.8,18.8,18.8h146c10.4,0,18.8-8.4,18.8-18.8S240,226,229.6,226c0,0,0,0,0,0H83.6z"></path><path class="st1" d="M218.5,250.3c-4.5,0-8.2-3.6-8.2-8.1c0-4.5,3.6-8.2,8.1-8.2s8.2,3.6,8.2,8.1c0,0,0,0,0,0
		C226.7,246.6,223,250.2,218.5,250.3z M218.5,235c-3.9,0-7.2,3.2-7.2,7.1c0,3.9,3.2,7.2,7.1,7.2c3.9,0,7.2-3.2,7.2-7.1c0,0,0,0,0,0
		C225.6,238.2,222.5,235,218.5,235L218.5,235z"></path><path class="st1" d="M228.6,254.1c-0.1,0-0.3-0.1-0.4-0.2l-5-5.7c-0.2-0.2-0.2-0.5,0-0.7c0.2-0.2,0.5-0.2,0.7,0c0,0,0,0,0,0l5,5.7
		c0.2,0.2,0.2,0.5-0.1,0.7C228.8,254,228.7,254.1,228.6,254.1z"></path></g><g id="setting-icon"><path class="st0" d="M152,279.8c-0.3-0.2-0.4-0.6-0.4-0.9c0-0.2,0-0.3,0-0.5v-2c0-0.2,0-0.3,0-0.5c0-0.3,0.1-0.6,0.4-0.8l6.6-5
		c0.4-0.3,0.5-0.8,0.2-1.3l-7.4-12.8c-0.3-0.4-0.8-0.6-1.2-0.4l-7.7,3.2c-0.3,0.1-0.7,0.1-0.9-0.1c-0.4-0.3-0.8-0.6-1.3-0.8
		c-0.4-0.3-0.9-0.5-1.4-0.7c-0.3-0.1-0.5-0.4-0.6-0.8l-1-8.2c-0.1-0.5-0.5-0.8-1-0.8h-14.8c-0.5,0-0.9,0.4-1,0.8l-1,8.2
		c0,0.3-0.2,0.6-0.5,0.8c-0.5,0.2-0.9,0.4-1.3,0.7c-0.4,0.3-0.9,0.5-1.3,0.8c-0.3,0.2-0.6,0.2-0.9,0.1l-7.6-3.3
		c-0.4-0.2-1,0-1.2,0.4l-7.4,12.8c-0.2,0.4-0.1,1,0.3,1.3l6.6,5c0.3,0.2,0.4,0.5,0.4,0.8c0,0.2,0,0.3,0,0.5v2c0,0.2,0,0.3,0,0.5
		c0,0.3-0.1,0.6-0.4,0.8l-6.6,5c-0.4,0.3-0.5,0.8-0.3,1.3l7.4,12.8c0.3,0.4,0.8,0.6,1.2,0.4l7.7-3.2c0.3-0.1,0.6-0.1,0.9,0.1
		c0.4,0.3,0.8,0.6,1.3,0.8c0.4,0.3,0.9,0.5,1.3,0.7c0.3,0.1,0.5,0.4,0.6,0.8l1,8.2c0.1,0.5,0.5,0.8,1,0.8h14.8c0.5,0,0.9-0.4,1-0.8
		l1-8.2c0-0.3,0.2-0.6,0.6-0.8c0.4-0.2,0.9-0.4,1.3-0.7c0.4-0.3,0.9-0.5,1.3-0.8c0.3-0.2,0.6-0.2,0.9-0.1l7.6,3.2
		c0.4,0.2,1,0,1.2-0.4l7.4-12.7c0.2-0.4,0.1-1-0.3-1.3L152,279.8z M129.1,290.4c-7.2,0-13.1-5.8-13.1-13.1s5.8-13.1,13.1-13.1
		c7.2,0,13.1,5.8,13.1,13.1l0,0C142.2,284.6,136.3,290.4,129.1,290.4L129.1,290.4z"></path><path class="st1" d="M136.6,308h-14.8c-0.7,0-1.4-0.6-1.4-1.3l-1-8.2c0-0.2-0.1-0.3-0.3-0.4c-0.5-0.2-0.9-0.5-1.4-0.7
		c-0.4-0.3-0.9-0.5-1.3-0.9c-0.1-0.1-0.3-0.1-0.4,0l-7.7,3.2c-0.7,0.3-1.5,0-1.8-0.6L99,286.3c-0.4-0.6-0.2-1.5,0.4-1.9l6.6-5
		c0.1-0.1,0.2-0.2,0.2-0.4c0-0.2,0-0.4,0-0.5v-2c0-0.1,0-0.3,0-0.5c0-0.2,0-0.4-0.2-0.5l-6.7-5c-0.6-0.5-0.7-1.3-0.4-1.9l7.4-12.8
		c0.4-0.6,1.2-0.9,1.8-0.6l7.7,3.2c0.1,0.1,0.3,0.1,0.4,0c0.4-0.3,0.9-0.6,1.3-0.9s1-0.5,1.4-0.7c0.1-0.1,0.2-0.2,0.2-0.4l1-8.2
		c0.1-0.7,0.7-1.3,1.4-1.3h14.8c0.7,0,1.4,0.6,1.4,1.3l1,8.2c0,0.2,0.1,0.3,0.3,0.4c0.5,0.2,0.9,0.5,1.4,0.7
		c0.4,0.3,0.9,0.5,1.3,0.8c0.1,0.1,0.3,0.1,0.4,0l7.7-3.2c0.7-0.3,1.5,0,1.8,0.6l7.4,12.8c0.4,0.6,0.2,1.5-0.4,1.9l-6.6,5
		c-0.1,0.1-0.2,0.3-0.2,0.4c0,0.2,0,0.4,0,0.5v2c0,0.2,0,0.4,0,0.5c0,0.2,0,0.3,0.2,0.5l6.6,5c0.6,0.5,0.7,1.3,0.4,1.9l-7.4,12.8
		c-0.4,0.6-1.2,0.9-1.8,0.6l-7.6-3.2c-0.1-0.1-0.3-0.1-0.4,0c-0.4,0.3-0.9,0.6-1.3,0.9s-0.9,0.5-1.4,0.7c-0.1,0.1-0.2,0.2-0.3,0.4
		l-1,8.2C137.9,307.5,137.3,308,136.6,308z M116,295.4c0.3,0,0.6,0.1,0.8,0.3c0.4,0.3,0.8,0.5,1.2,0.8c0.4,0.2,0.8,0.5,1.3,0.7
		c0.5,0.2,0.8,0.6,0.9,1.1l1,8.2c0,0.2,0.2,0.4,0.5,0.4h14.8c0.2,0,0.4-0.2,0.5-0.4l1-8.2c0.1-0.5,0.4-0.9,0.8-1.1
		c0.4-0.2,0.9-0.4,1.3-0.7s0.9-0.5,1.3-0.8c0.4-0.3,0.9-0.3,1.4-0.1l7.6,3.2c0.2,0.1,0.5,0,0.6-0.2l7.4-12.8
		c0.1-0.2,0.1-0.5-0.1-0.6l-6.6-5l0,0c-0.4-0.3-0.6-0.9-0.6-1.4c0-0.1,0-0.3,0-0.4v-2c0-0.1,0-0.3,0-0.4c0-0.5,0.2-1,0.6-1.3l6.6-5
		c0.2-0.1,0.2-0.4,0.1-0.6l-7.4-12.8c-0.1-0.2-0.4-0.3-0.6-0.2l-7.7,3.2c-0.5,0.2-1,0.1-1.4-0.1c-0.4-0.3-0.8-0.5-1.2-0.8
		c-0.4-0.2-0.8-0.5-1.3-0.7c-0.5-0.2-0.8-0.6-0.9-1.1l-1-8.2c0-0.2-0.2-0.4-0.5-0.4h-14.8c-0.2,0-0.4,0.2-0.4,0.4l-1,8.2
		c-0.1,0.5-0.4,0.9-0.8,1.1c-0.4,0.2-0.8,0.4-1.3,0.7s-0.9,0.5-1.3,0.8c-0.4,0.3-0.9,0.3-1.4,0.1l-7.7-3.2c-0.2-0.1-0.5,0-0.6,0.2
		L99.8,269c-0.1,0.2-0.1,0.5,0.1,0.6l6.6,5c0.4,0.3,0.6,0.8,0.6,1.3c0,0.2,0,0.3,0,0.5v2c0,0.1,0,0.3,0,0.4c0.1,0.5-0.2,1-0.6,1.3
		l-6.6,5c-0.2,0.1-0.2,0.4-0.1,0.6l7.4,12.8c0.1,0.2,0.4,0.3,0.6,0.2l7.7-3.2C115.6,295.4,115.8,295.4,116,295.4z M129.1,290.9
		c-7.5,0-13.6-6.1-13.6-13.6s6.1-13.6,13.6-13.6c7.5,0,13.6,6.1,13.6,13.6l0,0C142.7,284.8,136.6,290.9,129.1,290.9L129.1,290.9z
		 M129.1,264.8c-6.9,0-12.6,5.6-12.6,12.6s5.6,12.6,12.6,12.6c6.9,0,12.6-5.6,12.6-12.6c0,0,0,0,0,0
		C141.7,270.4,136.1,264.8,129.1,264.8L129.1,264.8z"></path></g><g id="keywoard-bar-2"><path class="st0" d="M140.1,105.2c0,6-4.9,10.9-10.9,10.9H73.4V94.2h55.7C135.2,94.2,140.1,99.1,140.1,105.2z"></path><path class="st1" d="M129.1,116.6H73.4c-0.3,0-0.5-0.2-0.5-0.5V94.2c0-0.3,0.2-0.5,0.5-0.5h55.7c6.3,0,11.4,5.1,11.4,11.4
		C140.5,111.5,135.4,116.6,129.1,116.6z M73.9,115.6h55.2c5.8,0.2,10.6-4.3,10.7-10.1c0.2-5.8-4.3-10.6-10.1-10.7
		c-0.2,0-0.4,0-0.6,0H73.9L73.9,115.6z"></path><path class="st2" d="M73.4,94.2v21.8H62.9c-6-0.2-10.8-5.2-10.6-11.3c0.2-5.8,4.8-10.4,10.6-10.6H73.4z"></path><path class="st1" d="M73.4,116.6H62.9c-6.3,0-11.4-5.1-11.4-11.4c0-3,1.2-5.9,3.3-8.1c2.1-2.1,5-3.4,8.1-3.3h10.5
		c0.3,0,0.5,0.2,0.5,0.5v21.8C73.9,116.4,73.7,116.6,73.4,116.6z M62.9,94.7c-5.7,0-10.4,4.7-10.4,10.4c0,0,0,0,0,0
		c0,5.8,4.7,10.4,10.4,10.4h10V94.7H62.9z"></path><path class="st1" d="M62.7,110.4c-0.3,0-0.5-0.2-0.5-0.5v-9.5c0-0.3,0.2-0.5,0.5-0.5s0.5,0.2,0.5,0.5v9.5
		C63.2,110.2,63,110.4,62.7,110.4z"></path><path class="st1" d="M67.5,105.7H58c-0.3,0-0.5-0.2-0.5-0.5s0.2-0.5,0.5-0.5h9.5c0.3,0,0.5,0.2,0.5,0.5
		C68,105.4,67.8,105.7,67.5,105.7C67.5,105.7,67.5,105.7,67.5,105.7z"></path></g><g id="keywoard-bar-2-2"><path class="st0" d="M445.6,85c0,11.6-9.4,21-21,21l0,0h-72.7V64h72.8C436.2,64,445.6,73.4,445.6,85z"></path><path class="st1" d="M424.6,106.5h-72.7c-0.3,0-0.5-0.2-0.5-0.5V64c0-0.3,0.2-0.5,0.5-0.5h72.7c11.9,0,21.5,9.6,21.5,21.5
		C446.1,96.9,436.5,106.5,424.6,106.5L424.6,106.5z M352.4,105.5h72.2c11.3,0.2,20.7-8.7,20.9-20c0.2-11.3-8.7-20.7-20-20.9
		c-0.3,0-0.6,0-0.9,0h-72.2V105.5z"></path><path class="st2" d="M351.9,64v42h-20.2c-11.6-0.6-20.5-10.4-20-22c0.5-10.8,9.2-19.4,20-20L351.9,64z"></path><path class="st1" d="M351.9,106.5h-20.2c-11.9,0-21.5-9.6-21.5-21.5c0-5.7,2.3-11.2,6.3-15.2c4-4,9.5-6.3,15.2-6.3h20.2
		c0.3,0,0.5,0.2,0.5,0.5v42C352.4,106.3,352.2,106.5,351.9,106.5z M331.7,64.5c-11.3,0-20.5,9.2-20.5,20.5
		c0,11.3,9.2,20.5,20.5,20.5h19.7V64.5H331.7z"></path><polygon class="st0" points="331.3,73.2 335.1,81 343.7,82.2 337.5,88.3 338.9,96.8 331.3,92.8 323.6,96.8 325.1,88.3 318.9,82.2 
		327.5,81 	"></polygon><path class="st1" d="M338.9,97.3c-0.1,0-0.2,0-0.2-0.1l-7.4-3.9l-7.4,3.9c-0.2,0.1-0.4,0.1-0.5,0c-0.2-0.1-0.2-0.3-0.2-0.5l1.4-8.2
		l-6-5.8c-0.1-0.1-0.2-0.3-0.1-0.5c0.1-0.2,0.2-0.3,0.4-0.3l8.3-1.2l3.7-7.6c0.1-0.2,0.5-0.3,0.7-0.2c0.1,0,0.1,0.1,0.2,0.2l3.7,7.5
		l8.3,1.2c0.2,0,0.3,0.2,0.4,0.3c0.1,0.2,0,0.4-0.1,0.5l-6,5.8l1.4,8.2c0,0.2,0,0.4-0.2,0.5C339.1,97.2,339,97.3,338.9,97.3z
		 M331.3,92.3c0.1,0,0.2,0,0.2,0.1l6.8,3.5l-1.3-7.5c0-0.2,0-0.3,0.1-0.4l5.5-5.3l-7.6-1.1c-0.2,0-0.3-0.1-0.4-0.3l-3.4-6.8
		l-3.4,6.8c-0.1,0.1-0.2,0.2-0.4,0.3l-7.5,1.1l5.5,5.3c0.1,0.1,0.2,0.3,0.1,0.4l-1.3,7.5l6.7-3.5C331.1,92.3,331.2,92.3,331.3,92.3
		L331.3,92.3z"></path></g></svg>